<?xml version="1.0" encoding="UTF-8"?> <svg xmlns="http://www.w3.org/2000/svg" width="380" height="160" viewBox="0 0 380 160" fill="none"><rect width="380" height="160" fill="white"></rect><path d="M143.07 104.658H145.747C145.815 105.928 146.467 106.957 148.457 106.957C150.138 106.957 150.79 106.374 150.79 105.413C150.79 103.046 143.311 104.693 143.311 100.301C143.311 98.3795 144.58 96.7669 148.251 96.7669C152.06 96.7669 153.226 98.6196 153.261 101.021H150.584C150.447 99.7862 150.001 98.997 148.114 98.997C146.364 98.997 145.952 99.6489 145.952 100.232C145.952 102.668 153.398 100.747 153.398 105.344C153.398 107.129 152.266 109.153 148.491 109.153C144.58 109.153 143.105 107.506 143.07 104.658Z" fill="#1FB4C3"></path><path d="M155.01 96.4237C155.01 95.3601 155.696 95.0856 156.657 95.0856C157.618 95.0856 158.27 95.3601 158.27 96.4237C158.27 97.4873 157.618 97.7618 156.657 97.7618C155.696 97.7618 155.01 97.4873 155.01 96.4237ZM155.388 99.3057H157.995V108.981H155.388V99.3057Z" fill="#1FB4C3"></path><path d="M159.402 105.585H161.941C161.941 106.58 162.73 107.129 164.103 107.129C165.303 107.129 165.955 106.717 165.955 106.134C165.955 104.349 159.608 105.619 159.608 102.222C159.608 100.198 161.152 99.1686 163.897 99.1686C166.744 99.1686 168.185 100.335 168.185 102.6H165.784C165.681 101.57 165.2 101.159 163.828 101.159C162.524 101.159 162.113 101.639 162.113 102.119C162.113 103.835 168.46 102.394 168.46 106.065C168.46 107.918 166.71 109.153 164.103 109.153C160.98 109.153 159.402 107.986 159.402 105.585Z" fill="#1FB4C3"></path><path d="M170.793 105.79V101.433H169.386V100.163L170.793 99.3743V96.904H173.366V99.3057H175.871V101.433H173.469V105.756C173.469 106.82 174.087 107.094 175.871 106.957V109.084C172.406 109.359 170.793 108.775 170.793 105.79Z" fill="#1FB4C3"></path><path d="M176.523 104.144C176.523 101.742 177.38 99.1686 181.292 99.1686C184.963 99.1686 185.992 102.119 185.718 105.173H179.165C179.302 106.545 180.125 107.129 181.257 107.129C182.424 107.129 182.836 106.614 183.007 106.065H185.752C185.581 107.677 184.483 109.153 181.36 109.153C177.38 109.153 176.523 106.648 176.523 104.144ZM183.042 103.183C183.042 102.119 182.458 101.193 181.086 101.193C179.782 101.193 179.233 102.085 179.165 103.183H183.042Z" fill="#1FB4C3"></path><path d="M187.33 99.3057H188.428L189.012 100.884C189.423 100.095 190.35 99.1341 192.168 99.1341C193.438 99.1341 194.33 99.6145 194.844 100.575C195.153 99.9919 195.942 99.1341 197.726 99.1341C200.368 99.1341 200.951 101.055 200.951 103.183V108.947H198.31V103.011C198.31 102.085 198.104 101.296 196.903 101.296C195.702 101.296 195.462 102.05 195.462 103.011V108.947H192.82V103.011C192.82 102.085 192.614 101.296 191.413 101.296C190.212 101.296 189.938 102.085 189.938 103.045V108.947H187.365V99.3057H187.33Z" fill="#1FB4C3"></path><path d="M202.29 106.134C202.29 104.315 203.49 103.492 206.338 103.251L208.911 103.011C208.877 101.948 208.397 101.159 206.956 101.159C205.583 101.159 205.172 101.776 205.172 102.737L202.598 102.771C202.598 100.781 203.422 99.1686 206.887 99.1686C210.901 99.1686 211.485 100.953 211.485 103.526V109.016H210.387L209.803 107.472C209.22 108.364 208.088 109.187 206.132 109.187C204.005 109.153 202.29 108.192 202.29 106.134ZM208.911 104.761L206.75 105.001C205.412 105.139 205 105.482 205 105.996C205 106.648 205.515 107.129 206.784 107.129C208.362 107.129 208.877 106.031 208.911 104.761Z" fill="#1FB4C3"></path><path d="M217.146 104.143C217.146 101.57 218.175 99.1684 221.229 99.1684C222.876 99.1684 223.733 99.786 224.111 100.369V95.6345H226.684V108.981H225.586L225.003 107.437C224.385 108.398 223.424 109.153 221.263 109.153C218.278 109.153 217.146 106.717 217.146 104.143ZM224.179 104.143C224.179 102.531 223.905 101.364 222.052 101.364C220.268 101.364 219.788 102.496 219.788 104.143C219.788 105.825 220.268 106.991 222.018 106.991C223.871 106.991 224.179 105.859 224.179 104.143Z" fill="#1FB4C3"></path><path d="M228.297 104.144C228.297 101.742 229.154 99.1686 233.066 99.1686C236.737 99.1686 237.766 102.119 237.492 105.173H230.938C231.076 106.545 231.899 107.129 233.031 107.129C234.198 107.129 234.61 106.614 234.781 106.065H237.526C237.354 107.677 236.256 109.153 233.134 109.153C229.154 109.153 228.297 106.648 228.297 104.144ZM234.815 103.183C234.815 102.119 234.232 101.193 232.86 101.193C231.556 101.193 231.007 102.085 230.938 103.183H234.815Z" fill="#1FB4C3"></path><path d="M243.633 96.904H252.176V99.1341H246.275V101.742H251.593V103.903H246.275V106.751H252.176V108.981H243.633V96.904Z" fill="#1FB4C3"></path><path d="M254.029 99.3058H255.093L255.71 100.815C256.362 99.8205 257.254 99.1686 259.347 99.1686C262.401 99.1686 263.053 101.021 263.053 103.732V109.016H260.479V103.526C260.479 102.154 260.205 101.364 258.592 101.364C256.98 101.364 256.602 102.188 256.602 103.595V109.016H254.029V99.3058V99.3058Z" fill="#1FB4C3"></path><path d="M264.391 105.585H266.93C266.93 106.58 267.719 107.129 269.091 107.129C270.292 107.129 270.944 106.717 270.944 106.134C270.944 104.349 264.597 105.619 264.597 102.222C264.597 100.198 266.141 99.1686 268.885 99.1686C271.733 99.1686 273.174 100.335 273.174 102.6H270.772C270.669 101.57 270.189 101.159 268.817 101.159C267.513 101.159 267.101 101.639 267.101 102.119C267.101 103.835 273.449 102.394 273.449 106.065C273.449 107.918 271.699 109.153 269.091 109.153C265.969 109.153 264.391 107.986 264.391 105.585Z" fill="#1FB4C3"></path><path d="M274.615 96.4237C274.615 95.3601 275.301 95.0856 276.262 95.0856C277.223 95.0856 277.875 95.3601 277.875 96.4237C277.875 97.4873 277.223 97.7618 276.262 97.7618C275.267 97.7618 274.615 97.4873 274.615 96.4237ZM274.958 99.3057H277.566V108.981H274.958V99.3057Z" fill="#1FB4C3"></path><path d="M279.521 99.3058H280.585L281.203 100.815C281.855 99.8205 282.747 99.1686 284.839 99.1686C287.893 99.1686 288.545 101.021 288.545 103.732V109.016H285.972V103.526C285.972 102.154 285.697 101.364 284.085 101.364C282.472 101.364 282.095 102.188 282.095 103.595V109.016H279.521V99.3058Z" fill="#1FB4C3"></path><path d="M289.917 104.144C289.917 101.605 290.981 99.1686 294.721 99.1686C298.426 99.1686 299.524 101.57 299.524 104.144C299.524 106.751 298.426 109.153 294.686 109.153C290.981 109.153 289.917 106.717 289.917 104.144ZM297.02 104.144C297.02 102.6 296.574 101.364 294.755 101.364C292.971 101.364 292.491 102.565 292.491 104.144C292.491 105.756 292.971 106.923 294.721 106.923C296.471 106.923 297.02 105.756 297.02 104.144Z" fill="#1FB4C3"></path><path d="M183.762 66.8485C179.919 64.6183 175.15 64.6183 171.308 66.8485H171.273C168.769 68.2895 167.225 71 167.225 73.882V79.2687C167.225 82.1508 168.769 84.8612 171.273 86.3023L171.308 86.3366C173.229 87.4345 175.356 87.9835 177.518 87.9835C179.679 87.9835 181.806 87.4345 183.728 86.3366L183.762 86.3023C186.267 84.8612 187.811 82.1508 187.811 79.2687V73.882C187.811 70.9657 186.267 68.2895 183.762 66.8485ZM182.733 79.2344C182.733 80.298 182.15 81.3273 181.223 81.8763L181.189 81.9106C178.924 83.2144 176.111 83.2144 173.881 81.9106L173.847 81.8763C172.92 81.3273 172.337 80.3323 172.337 79.2344V73.882C172.337 72.8184 172.92 71.7891 173.847 71.2402H173.881C175.013 70.5883 176.283 70.2452 177.552 70.2452C178.821 70.2452 180.091 70.5883 181.223 71.2402L181.257 71.2745C182.184 71.8234 182.767 72.8184 182.767 73.9164V79.2344H182.733Z" fill="black"></path><path d="M229.36 66.8484L229.326 66.8141C225.483 64.6182 220.748 64.6182 216.906 66.8141H216.871C214.367 68.2551 212.823 70.9656 212.823 73.8476V79.2343C212.823 82.1164 214.367 84.8269 216.871 86.2679L216.906 86.3022C218.827 87.4001 220.954 87.9491 223.116 87.9491C225.277 87.9491 227.404 87.4001 229.326 86.3022H229.36C231.076 85.3072 232.379 83.7289 232.997 81.8419L228.159 80.2293C227.919 80.9155 227.439 81.5331 226.787 81.9105H226.753C224.488 83.2143 221.675 83.2143 219.445 81.9105L219.41 81.8762C218.484 81.3272 217.901 80.3322 217.901 79.2343V78.8226H233.409V73.882C233.409 70.9656 231.83 68.2894 229.36 66.8484ZM217.901 73.7447C217.935 72.7154 218.518 71.789 219.41 71.2401H219.445C221.709 69.9363 224.522 69.9363 226.753 71.2401L226.787 71.2744C227.679 71.789 228.262 72.7497 228.297 73.779H217.901V73.7447Z" fill="black"></path><path d="M296.951 66.8484C293.108 64.6182 288.339 64.6182 284.496 66.8141L284.462 66.8484C281.957 68.2894 280.413 70.9999 280.413 73.8819V79.2686C280.413 82.1506 281.957 84.8611 284.462 86.3022L284.496 86.3365C286.418 87.4344 288.545 87.9833 290.706 87.9833C292.868 87.9833 294.995 87.4344 296.917 86.3365L296.951 86.3022C299.456 84.8611 300.999 82.1506 300.999 79.2686V73.8819C301.034 70.9656 299.456 68.2894 296.951 66.8484ZM295.956 79.2343C295.956 80.2979 295.373 81.3272 294.446 81.8762L294.412 81.9105C292.148 83.2143 289.334 83.2143 287.104 81.9105L287.07 81.8762C286.143 81.3272 285.56 80.3322 285.56 79.2343V73.8819C285.56 72.8183 286.143 71.789 287.07 71.2401L287.104 71.2057C288.236 70.5539 289.506 70.2108 290.775 70.2108C292.045 70.2108 293.314 70.5539 294.446 71.2057L294.481 71.2401C295.407 71.789 295.99 72.784 295.99 73.8819V79.2343H295.956Z" fill="black"></path><path d="M159.814 57.2759L159.471 57.07C155.491 54.7713 150.516 54.7713 146.536 57.07L146.193 57.2759C143.516 58.8198 141.87 61.7019 141.87 64.7555V65.03V70.8284V87.4344H146.947V78.754C148.835 79.749 150.927 80.2636 153.02 80.2636C155.251 80.2636 157.481 79.6803 159.505 78.5481L159.848 78.3423C162.524 76.7983 164.171 73.9163 164.171 70.8627V64.7898C164.137 61.7019 162.49 58.8198 159.814 57.2759ZM159.059 70.8284C159.059 72.0978 158.373 73.2644 157.275 73.9163L156.932 74.1221C154.496 75.5288 151.511 75.5288 149.075 74.1221L148.732 73.9163C147.634 73.2644 146.947 72.0978 146.947 70.8284V65.0643V64.7898C146.947 63.5203 147.634 62.3538 148.732 61.7019L149.075 61.496C150.276 60.8098 151.648 60.4324 152.986 60.4324C154.358 60.4324 155.697 60.7755 156.897 61.496L157.24 61.7019C158.338 62.3538 159.025 63.5203 159.025 64.7898V70.8284H159.059Z" fill="black"></path><path d="M267.547 65.5446C264.356 67.363 262.401 70.794 262.401 74.4652V87.3658H267.479V74.4652C267.479 72.6124 268.474 70.8969 270.086 69.9706C271.699 69.0442 273.689 69.0442 275.301 69.9706L276.742 70.794L279.281 66.4023L277.84 65.5789C274.684 63.7261 270.738 63.7261 267.547 65.5446Z" fill="black"></path><path d="M197.177 81.3959V55.1144H192.099V81.3959C192.099 84.7583 194.844 87.5031 198.207 87.5031H199.545V82.4252H198.207C197.623 82.3909 197.177 81.9449 197.177 81.3959Z" fill="black"></path><path d="M208.808 64.5497H203.73V87.606H208.808V64.5497Z" fill="black"></path><path d="M252.863 66.3338C249.226 64.6526 244.937 64.7898 241.437 66.8141H241.403C238.898 68.2552 237.354 70.9656 237.354 73.8477V79.2344C237.354 82.1164 238.898 84.8269 241.403 86.2679L241.437 86.3022C243.359 87.4001 245.486 87.9491 247.647 87.9491C249.809 87.9491 251.936 87.4001 253.858 86.3022H253.892C256.396 84.8612 257.94 82.1507 257.94 79.2687V73.882C257.94 73.6761 257.906 73.4703 257.906 73.2987H257.94V55.286H252.863V66.3338ZM252.863 79.2344C252.863 80.298 252.279 81.3273 251.353 81.8762H251.319C249.054 83.18 246.241 83.18 244.011 81.8762L243.976 81.8419C243.05 81.293 242.467 80.298 242.467 79.2001V73.882C242.467 72.8184 243.05 71.7891 243.976 71.2401H244.011C245.143 70.5882 246.412 70.2451 247.682 70.2451C248.951 70.2451 250.221 70.5539 251.319 71.2058L251.353 71.2401C252.279 71.7891 252.863 72.7841 252.863 73.882V79.2344Z" fill="black"></path><path d="M206.407 55.1144C205.48 55.1144 204.623 55.5948 204.142 56.4182C203.662 57.2073 203.662 58.2023 204.142 59.0258C204.623 59.8149 205.446 60.3295 206.407 60.3295C207.333 60.3295 208.191 59.8492 208.671 59.0258C209.152 58.2366 209.152 57.2416 208.671 56.4182C208.191 55.5948 207.333 55.1144 206.407 55.1144Z" fill="black"></path><path d="M100.114 72.9898L123.788 58.7169L104.677 47.669C103.168 46.777 101.281 46.777 99.7368 47.669L80.9006 58.6826C79.6998 59.4031 79.6998 61.1529 80.9006 61.8391L100.114 72.9898Z" fill="#1FB4C3"></path><path d="M82.7534 76.7296L100.492 86.9883C101.624 87.6402 102.31 88.8411 102.31 90.1449V112.995C102.31 114.402 100.8 115.294 99.5653 114.574L81.827 104.349C80.6948 103.697 80.0086 102.496 80.0086 101.193V78.3079C80.0086 76.9012 81.5182 76.0434 82.7534 76.7296Z" fill="#FAA41F"></path><path d="M123.788 58.717L100.114 72.9899C101.487 73.7791 102.344 75.2544 102.344 76.8327V101.707L123.822 89.3215C125.332 88.4295 126.293 86.8169 126.293 85.0328V62.9714C126.258 61.2216 125.332 59.5747 123.788 58.717Z" fill="#EE2252"></path></svg> 